<svg width="176" height="18" viewBox="0 0 176 18" fill="none" xmlns="http://www.w3.org/2000/svg">
<path d="M13.3108 0H0V1.72157C0 7.02019 3.4571 9.02869 6.11001 10.6451C8.18057 11.9075 9.55787 12.8257 10.0663 14.5664H3.9655C2.13527 14.5664 0.647051 16.1063 0.647051 18H13.6066V16.2784C13.6066 11.2094 10.3805 9.24867 7.79234 7.68013C5.60161 6.35069 4.16886 5.37513 3.6697 3.43358H13.3015C16.1855 3.43358 18.5426 5.7864 18.672 8.74176C18.672 8.82784 18.6813 8.91392 18.6813 9C18.6813 10.559 18.0435 12.0606 16.925 13.1126C16.4074 13.6004 15.8158 13.9734 15.1687 14.2125C14.7713 14.3656 14.3645 14.4612 13.9393 14.5186C14.0318 15.0733 14.078 15.6567 14.078 16.2784V17.9617C14.8452 17.8948 15.5939 17.7131 16.3149 17.4453C17.5351 16.9766 18.6166 16.2497 19.5317 15.2742C20.9182 13.8013 21.7871 11.8693 21.9628 9.81296C22.4342 4.48565 18.367 0 13.3108 0Z" fill="#BE1622"/>
<path d="M54.6201 0C60.553 0 63 2.22815 63 7.25243V10.7476C63 15.75 60.553 18 54.6201 18H41.8311C41.277 18 41 17.7379 41 17.2354V0.786409C41 0.262137 41.277 0.021846 41.8311 0.021846H54.6201V0ZM45.1784 14.0898C45.1784 14.3301 45.2938 14.4175 45.5247 14.4175H54.5047C57.7366 14.4175 58.7985 13.4345 58.7985 10.3981V7.5801C58.7985 4.54369 57.7366 3.56068 54.5047 3.56068H45.5477C45.2938 3.56068 45.2015 3.6699 45.2015 3.9102V14.0898H45.1784Z" fill="white"/>
<path d="M118.159 0C118.655 0 118.703 0.436895 118.443 0.677186L109.843 8.67233L118.844 17.3228C119.104 17.5631 119.057 18 118.561 18H114.733C114.284 18 114.072 17.8908 113.836 17.6505L106.913 10.9879L99.9666 17.6505C99.7067 17.9126 99.5177 18 99.0451 18H95.4066C94.934 18 94.9104 17.5631 95.1467 17.3228L104.361 8.54126L96.0445 0.677186C95.8319 0.436895 95.8319 0 96.328 0H100.156C100.605 0 100.817 0.131069 101.053 0.349516L107.149 6.31311L113.623 0.349516C113.836 0.109225 114.072 0 114.521 0H118.159Z" fill="#BE1622"/>
<path d="M163.168 0C164.615 0 165.507 0.415555 166.447 1.94654L175.9 17.4095C176.093 17.7375 176.021 18 175.562 18H171.921C171.56 18 171.415 17.9125 171.27 17.6719L169.245 14.3475H155.813L153.836 17.6719C153.691 17.9344 153.523 18 153.185 18H149.472C148.989 18 148.893 17.7375 149.11 17.4095L158.49 1.94654C159.43 0.393684 160.299 0 161.48 0H163.168ZM157.622 11.373H167.46L162.927 3.82746C162.83 3.69624 162.758 3.65249 162.613 3.65249H162.445C162.3 3.65249 162.228 3.69624 162.131 3.82746L157.622 11.373Z" fill="white"/>
<path d="M88.3774 3.58688C88.7925 3.58688 89 3.41191 89 3.01822V0.568653C89 0.174971 88.7694 0 88.3774 0H70V18H72.4903H73.9891H88.3774C88.7925 18 89 17.825 89 17.4314V14.9818C89 14.5881 88.7694 14.4131 88.3774 14.4131H73.9891V10.4763H88.2391C88.6541 10.4763 88.8386 10.3013 88.8386 9.90765V7.87363C88.8386 7.47995 88.6541 7.30498 88.2391 7.30498H73.9891V3.54314H88.3774V3.58688Z" fill="white"/>
<path d="M144.655 0C145.08 0 145.269 0.174543 145.269 0.567271V3.01091C145.269 3.40363 145.08 3.57818 144.655 3.57818H130.734C129.672 3.57818 129.271 4.12364 129.271 5.01818V5.89091C129.271 6.85091 129.743 7.33091 130.71 7.33091H141.139C144.348 7.33091 146 8.92364 146 11.76V13.8109C146 16.2982 144.443 18 141.069 18H125.661C125.236 18 125.024 17.8255 125.024 17.4327V14.9891C125.024 14.5964 125.236 14.4218 125.661 14.4218H140.266C141.328 14.4218 141.729 13.8764 141.729 12.9818V11.9345C141.729 10.9745 141.257 10.4945 140.29 10.4945H129.861C126.652 10.4945 125 8.90182 125 6.06545V4.18909C125 1.70181 126.557 0 129.931 0H144.655Z" fill="white"/>
</svg>
