<svg width="56" height="44" viewBox="0 0 56 44" fill="none" xmlns="http://www.w3.org/2000/svg">
<path d="M56 21.852C56 22.035 56 22.218 56 22.401C55.9815 22.5291 55.9447 22.6755 55.9447 22.8036C55.9078 24.7253 55.5572 26.6104 54.9852 28.4405C54.6162 29.5935 54.155 30.7099 53.6384 31.7897C52.9372 33.2721 51.9963 34.6264 50.9446 35.8892C49.6162 37.4997 48.0848 38.9089 46.3689 40.0802C44.45 41.3979 42.3651 42.4045 40.1142 43.0451C38.8411 43.4111 37.568 43.6856 36.258 43.8137C35.9444 43.8503 35.8706 43.7771 35.8706 43.4477C35.8337 41.4529 36.0366 39.4397 35.7414 37.4631C35.6676 36.8958 35.6123 36.3467 35.5385 35.7794C35.52 35.5598 35.5754 35.4683 35.7968 35.4317C36.9223 35.3219 38.0108 35.0107 39.0625 34.5898C40.4463 34.0408 41.7009 33.2721 42.8079 32.3021C44.6899 30.655 46.0552 28.6784 46.8486 26.3175C47.2545 25.1462 47.4944 23.9383 47.5682 22.6938C47.6973 21.0467 47.4206 19.4362 46.9224 17.8439C46.2951 15.7942 45.2065 14.0006 43.712 12.4816C41.2212 9.95601 38.1953 8.52849 34.6529 8.32717C32.4757 8.21737 30.2986 8.25397 28.1214 8.25397C25.6859 8.23567 23.2505 8.25397 20.815 8.25397C17.1065 8.25397 13.3795 8.25397 9.67098 8.25397C9.28352 8.25397 9.20971 8.34548 9.33887 8.7115C9.44957 9.02263 9.54182 9.33376 9.65253 9.62658C10.5012 11.7679 11.9404 13.4333 13.6747 14.8242C15.612 16.3798 17.7523 17.6426 19.8925 18.8871C22.0143 20.1133 24.0992 21.3944 26.055 22.8403C28.9332 24.9632 31.2395 27.5986 32.7525 30.8563C33.3613 32.174 33.841 33.5466 34.0624 34.9924C34.2285 36.0539 34.4499 37.1337 34.5053 38.2135C34.5975 40.0436 34.5606 41.8921 34.5791 43.7222C34.5791 43.9602 34.4868 44.0151 34.2654 43.9968C33.7488 43.9785 33.2137 43.9785 32.6971 43.9785C22.494 43.9785 12.2725 43.9785 2.0694 43.9785C1.9218 43.9785 1.79264 43.9602 1.58969 43.9419C1.70039 43.2098 1.73729 42.5143 1.9218 41.8555C2.2539 40.611 2.84432 39.4763 3.72994 38.5063C5.39048 36.6945 7.43847 35.7062 9.91083 35.6879C14.3574 35.6513 18.8224 35.6696 23.2689 35.6696C23.9516 35.6696 24.6527 35.6696 25.3354 35.6696C25.5937 35.6696 25.7229 35.6147 25.5752 35.3219C25.4461 35.0839 25.3907 34.7911 25.28 34.5532C24.3944 32.54 22.9737 30.9661 21.2394 29.6484C19.1545 28.0379 16.8666 26.7568 14.5972 25.4208C12.0511 23.92 9.56027 22.3827 7.30932 20.4428C3.84064 17.4413 1.49744 13.7993 0.556465 9.31545C0.242808 7.79643 0.0583034 6.25911 0.0398529 4.70348C-0.0154984 3.20276 0.00295207 1.70204 0.00295207 0.201316C0.00295207 0.146412 0.0214025 0.0915074 0.0398529 0C0.169006 0 0.279709 0 0.390411 0C4.54176 0 8.6931 0 12.8445 0C19.6342 0 26.424 0.0183015 33.2322 0C34.9112 0 36.5532 0.109809 38.1953 0.439236C40.1326 0.823567 41.9777 1.46412 43.7305 2.32429C45.9999 3.45898 47.9925 4.9231 49.7638 6.73494C51.5904 8.6017 53.0479 10.7247 54.0627 13.1039C54.5424 14.2019 54.9299 15.3549 55.2435 16.5262C55.5387 17.6426 55.6863 18.7773 55.8524 19.9303C55.9447 20.5709 55.9631 21.2114 56 21.852Z" fill="white"/>
</svg>
