<svg width="0" height="0" class="hidden">
  <symbol fill="none" stroke='currentColor' xmlns="http://www.w3.org/2000/svg" viewBox="0 0 16 26" id="arrow">
    <path d="M2 2l11 11L2 24" stroke-width="3"></path>
  </symbol>
  <symbol fill="currentColor" xmlns="http://www.w3.org/2000/svg" viewBox="0 0 50 50" id="clock">
    <path fill-rule="evenodd" clip-rule="evenodd"
      d="M49.461 24.525c0 13.53-10.969 24.5-24.5 24.5-13.53 0-24.5-10.97-24.5-24.5 0-13.531 10.97-24.5 24.5-24.5 13.531 0 24.5 10.969 24.5 24.5zM25.612 7.42a2.5 2.5 0 00-5 0v20.34a2.5 2.5 0 002.5 2.5h12.944a2.5 2.5 0 000-5H25.612V7.42z">
    </path>
  </symbol>
  <symbol fill="currentColor" xmlns="http://www.w3.org/2000/svg" viewBox="0 0 40 45" id="experience">
    <path fill-rule="evenodd" clip-rule="evenodd"
      d="M.572 40.1V27.832a4.5 4.5 0 119 0v12.266a4.5 4.5 0 01-9 0zm15 0V13.432a4.5 4.5 0 019 0V40.1a4.5 4.5 0 01-9 0zm15 0V4.9a4.5 4.5 0 119 0v35.2a4.5 4.5 0 01-9 0z">
    </path>
  </symbol>
  <symbol fill="currentColor" xmlns="http://www.w3.org/2000/svg" viewBox="0 0 43 59" id="lightning">
    <path
      d="M37.336 1.261L1.28 23.157c-1.277.776-1.284 2.627-.012 3.412l13.377 8.254a2 2 0 01.573 2.87L2.849 54.875c-1.277 1.774.812 4.018 2.673 2.87l36.21-22.325c1.29-.795 1.262-2.677-.048-3.435L28.039 24.1a2 2 0 01-.61-2.918L39.985 4.158c1.3-1.764-.774-4.034-2.648-2.897z">
    </path>
  </symbol>
  <symbol fill="currentColor" xmlns="http://www.w3.org/2000/svg" viewBox="0 0 51 48" id="slider">
    <path fill-rule="evenodd" clip-rule="evenodd"
      d="M8.24.968a3.5 3.5 0 013.5 3.5v2.545a8.503 8.503 0 010 15.91v21.545a3.5 3.5 0 01-7 0V22.47a8.499 8.499 0 01-4.5-7.502 8.499 8.499 0 014.5-7.502V4.468a3.5 3.5 0 013.5-3.5zm.5 17.5a3.5 3.5 0 100-7 3.5 3.5 0 000 7zm15.5-17.5a3.5 3.5 0 013.5 3.5v23.545a8.503 8.503 0 010 15.91v.545a3.5 3.5 0 11-7 0v-.998a8.499 8.499 0 01-4.5-7.502 8.498 8.498 0 014.5-7.502V4.468a3.5 3.5 0 013.5-3.5zm.5 38.5a3.5 3.5 0 100-7 3.5 3.5 0 000 7zm16.5-38.5a3.5 3.5 0 013.5 3.5v8.545a8.503 8.503 0 010 15.91v15.545a3.5 3.5 0 11-7 0V28.47a8.499 8.499 0 01-4.5-7.502 8.498 8.498 0 014.5-7.502V4.468a3.5 3.5 0 013.5-3.5zm.5 23.5a3.5 3.5 0 100-7 3.5 3.5 0 000 7z">
    </path>
  </symbol>
  <symbol fill="currentColor" xmlns="http://www.w3.org/2000/svg" viewBox="0 0 84 53" id="spikelet">
    <path d="M64.498 12.146c.409-1.556 2.199-4.666 2.857-6.26-.5 1.62-2.107 4.599-2.49 5.996 3.073 4.658 1.705 9.707-5.265 12.759-1.343-5.342-.068-8.782 4.898-12.495zm2.671 8.731c6.761-1.22 10.257-6.398 9.165-13.321.866-1.885 3.063-5.008 4.661-7.419-1.706 2.068-4.153 5.23-5.227 7.405-5.706 3.264-7.887 6.796-8.599 13.335zm10.127.564c1.623-1.026 4.784-3.581 6.273-4.793-1.78 1-4.85 3.49-6.355 4.292-5.845-.982-9.522 1.243-14.482 7.475 4.821 2.84 10.71.987 14.564-6.974zm-25.582 8.453c6.663-3.672 7.157-7.812 3.576-11.824.317-1.49 1.475-4.706 2-6.486-.725 1.503-2.04 4.692-2.358 6.182-4.808 3.74-6.108 7.338-3.218 12.128zm1.818 3.878c1.618 5.144 6.64 6.718 14.26 1.096 1.879-.09 5.605-1.089 7.509-1.337-2.104-.029-5.83.97-7.592.836-3.032-4.407-7.065-4.03-14.177-.595zm3.22 8.337c-1.002-5.447-4.95-6.11-12.526-4.865-.312 5.55 3.51 8.548 12.61 5.366l-.067-.092c1.804.384 5.247.15 7.167.31-2.053-.345-5.47-.27-7.183-.72zm-33.955-3.186c-1.215 2.557-1.317 4.732.17 6.606 1.512 1.716 4.455 3.103 9.02 3.464 1.587 1.241 5.385 2.854 7.156 3.963-1.654-1.333-5.361-3.012-6.633-4.2 1.376-5.615-1.848-7.781-9.713-9.833zm20.16-5.953c6.878-2.986 7.438-7.033 4.132-11.243.475-1.463 2.148-4.349 2.923-6.168-.974 1.542-2.648 4.428-3.306 6.023-4.933 2.988-6.614 6.44-3.75 11.388zm-9.417 6.214c-.676 2.73-.37 4.892 1.509 6.344 1.72 1.426 4.854 2.115 9.253 1.473 1.637.925 5.22 1.852 7.04 2.645-1.703-1.017-5.037-1.983-6.45-2.79.27-5.8-3.37-7.387-11.352-7.672zm32.997-16.87C48.625 36.602 25.965 38.887.952 30.95c-.009.567-.176 1.107-.184 1.674 25.519 10.377 51.455 6.856 65.769-10.31zM22.933 34.48c7.783.007 9.715-3.485 8.346-8.668 1.265-1.33 3.919-3.24 5.616-4.741-1.896 1.224-4.55 3.133-6.065 4.503-5.646.838-8.558 3.354-7.896 8.905zm10.111.155c7.468-1.588 8.726-5.437 6.31-10.147.924-1.225 3.254-4.163 4.519-5.494-1.306 1.08-3.728 4.084-4.81 5.283-5.506 1.999-7.836 4.937-6.019 10.358z"></path>
  </symbol>
  <symbol fill="currentColor" xmlns="http://www.w3.org/2000/svg" viewBox="0 0 86 73" id="atom">
    <path d="M77.235 42.473c-2.352 0-4.443 1.045-6.011 2.744L48.746 32.41a7.611 7.611 0 00.392-2.483c0-1.046-.242-2.381-.634-3.427l9.148-6.273c1.438 1.438 3.378 2.512 5.47 2.512a7.92 7.92 0 007.971-7.972 7.92 7.92 0 00-7.972-7.971 7.92 7.92 0 00-7.972 7.971c0 1.046.61 2.415 1.003 3.46L47.004 24.5c-1.438-1.438-3.747-2.545-5.838-2.545-2.222 0-4.599 1.437-6.036 2.875L15.004 11.5c.392-.915.94-2.483.94-3.528A7.92 7.92 0 007.972 0 7.92 7.92 0 000 7.972a7.92 7.92 0 007.972 7.972c2.221 0 4.182-.915 5.62-2.353l20.125 13.33c-.392.915-.523 1.96-.523 3.006 0 3.006 1.568 5.489 3.92 6.926L30.58 56.456h-.914a7.92 7.92 0 00-7.972 7.972 7.92 7.92 0 007.972 7.972 7.92 7.92 0 007.972-7.972c0-3.006-2.782-5.99-5.134-7.428l6.534-19.603c.262 0 1.867.502 2.128.502 2.352 0 4.792-1.507 6.36-3.206L70.004 47.5c-.261.784-.74 2.03-.74 2.945a7.92 7.92 0 007.971 7.971 7.92 7.92 0 007.972-7.971c0-4.313-3.528-7.972-7.972-7.972z"></path>
  </symbol>
  <symbol fill="currentColor" xmlns="http://www.w3.org/2000/svg" viewBox="0 0 86 88" id="oilproduction">
    <path d="M85.56 79.145h-1.604v-3.209h.267v-1.47h-1.604v-1.738h.4v-.802H81.95l-.134-52.14c1.471-5.749 1.204-11.096-.935-14.438-.268-.535-.936-.669-1.47-.401-.402.267-.67.935-.402 1.336l-4.68 9.359-.266-.134h-.535c-.401-.4-.803-.668-1.204-.802-1.203-.535-2.673-.401-3.743.401L23.527 0 22.19 4.68l1.337.4c.134.535.401.936.802 1.337L6.95 42.247c-2.406.133-4.812 1.47-6.015 3.743-2.006 3.61-.669 8.021 2.94 10.026.803.401 1.739.669 2.541.803l3.208 1.07c-.133.267-.133.534-.133.801 0 .669.134 1.203.535 1.738-1.337.134-2.54 1.203-2.54 2.674 0 .401.133.668.267 1.07H.8v6.951h2.674v15.108h-.802v.668h5.882v-.401h-.802V71.525h14.84v15.107h-.803v.668h5.883v-.802h-.802V71.525h14.17v15.107h-.801v.668h5.882v-.802h-.802V71.525h15.107v15.107h-.802v.668h5.882v-.802h-.802V71.525h2.808v-6.952h-11.23l-3.877-46.391h.267v-1.738h-1.604l-3.744-1.337c.134-.134.134-.401.134-.668 0-.268-.134-.669-.267-.936l19.519 6.55c.4 1.07 1.069 2.006 2.272 2.407.535.267 1.203.401 1.738.267l-.267.936c-.134.268 0 .535.267.669l.401.133L68.85 34.76c-.268.133-.402.4-.535.668-.134.267-.134.535 0 .669.133.534.802.802 1.337.668 4.278-1.47 8.556-6.818 11.096-13.637 0-.133.134-.133.134-.267l.133 49.332h-1.07v.802h.268v1.738h-1.47v1.47h.4v3.21h-1.87v.801h.534v6.284h7.353v-6.284h.4v-1.07zM51.2 39.974l-12.7 10.16.668-10.16H51.2zm-11.898-1.738l.668-8.824 11.23 8.824H39.303zm-2.407 25.4l1.07-10.427 14.973 10.428H36.896zm18.049-.801L39.838 52.407h14.304l.803 10.428zm-1.07-11.765H39.838l13.235-10.562.802 10.562zm-13.77-23.663H51.87l.668 10.026-12.433-10.026zm.134-2.808l.4-5.882 8.69.133-9.09 5.75zm11.23-5.481l.4 6.952H40.507l10.963-6.952zm-7.353-4.813c0 .267 0 .401.133.668l-3.342 1.204h-2.273v1.738h.669l-4.01 46.39H24.73c1.47-1.203 2.272-3.075 2.272-5.214 0-3.208-2.139-5.748-4.946-6.684l-9.225-7.62c-.535-.67-1.203-1.204-2.139-1.739-.936-.534-2.005-.802-2.941-.935L24.998 6.685c.134 0 .401.133.535.133.534 0 1.07-.267 1.47-.535L45.185 12.3c-.668.668-1.07 1.336-1.07 2.005zm26.47 19.519l2.006-9.091.802.267 3.61 1.337c-1.738 3.476-4.011 6.15-6.418 7.487zm8.29-11.498c-.268.802-.67 1.605-.937 2.407l-3.208-1.605 1.337-3.877 3.476.669c-.134.668-.401 1.604-.669 2.406zm1.203-4.411l-4.412-1.605 4.144-8.289c.936 2.54 1.07 6.15.267 9.894z"></path>
  </symbol>
  <symbol fill="currentColor" xmlns="http://www.w3.org/2000/svg" viewBox="0 0 49 111" id="gasproduction">
    <path d="M11.517 101.149h12.349v4.579h1.248v-4.579h12.349c.277 1.526.416 3.052.693 4.579h2.775c-3.468-19.703-6.382-39.405-9.85-59.108h1.11v-4.995h-7.077v-1.249c.278 0 .416-.277.416-.555 0-.277-.277-.555-.416-.555h-.971c-.278 0-.416.278-.416.555 0 .278.138.555.416.555v1.249h-7.076v4.995h1.11c-3.47 19.703-6.383 39.405-9.852 59.108H11.1c-.139-1.388.139-3.053.417-4.579zm25.39-3.192a206.348 206.348 0 01-9.434-5.272h8.602c.278 1.804.555 3.608.833 5.272zm-.97-6.66h-7.77l7.076-4.578c.139 1.526.416 3.052.694 4.579zm-1.804-11.793c-2.498-1.526-4.995-3.192-7.354-4.995h6.66c.139 1.803.416 3.469.694 4.995zm-.971-6.244h-5.55c1.665-1.249 3.33-2.636 4.994-4.024.14 1.388.417 2.636.556 4.024zm-1.804-12.349l-4.995-4.162h4.44c.139 1.387.277 2.775.555 4.162zm-4.579-5.689c1.11-1.11 2.081-2.08 3.191-3.33.14 1.11.278 2.22.555 3.33H26.78zM29.97 43.43h1.11v1.665h-1.11V43.43zm-2.08 0H29v1.665h-1.11V43.43zm-1.943 0h1.11v1.665h-1.11V43.43zm-.972 3.33h4.163c.138.416.139.971.277 1.387h-4.44V46.76zm0 2.775h4.579c-1.526 1.665-3.053 3.33-4.579 4.717v-4.717zm0 8.602c2.22 1.943 4.44 3.746 6.8 5.55 0 .139-.001.417.138.555h-6.799v-6.105h-.139zm0 7.493h7.077c0 .416.139.832.139 1.11-2.36 2.081-4.718 4.023-7.216 5.827V65.63zm0 10.406c3.191 2.22 6.244 4.301 9.574 6.244 0 .277.139.555.139.694h-9.574v-6.938h-.139zm0 8.325h9.574c-3.191 2.22-6.383 4.162-9.574 6.244V84.36zm0 9.574c3.469 2.081 7.077 4.023 10.684 5.966H24.975v-5.966zm-1.11 5.966H13.182a412.203 412.203 0 0010.685-5.966V99.9zm0-9.296a187.379 187.379 0 01-9.573-6.244h9.574v6.244zm-2.08-47.175h1.109v1.665h-1.11V43.43zm-1.944 0h1.11v1.665h-1.11V43.43zm-.277 3.33h4.163v1.387h-4.44c.138-.416.277-.971.277-1.387zm4.302 2.775v4.717c-1.527-1.526-3.053-3.052-4.58-4.717h4.58zm-1.804 5.688h-3.608c.139-1.11.278-2.22.555-3.19.833 1.11 1.943 2.22 3.053 3.19zM17.76 45.094v-1.665h1.11v1.665h-1.11zm.417 11.516h4.301c-1.665 1.388-3.33 2.914-4.995 4.163.277-1.25.416-2.637.694-4.163zm-1.11 6.938c2.22-1.804 4.578-3.608 6.66-5.55v6.105h-6.799c.139-.14.139-.278.139-.555zm-.278 2.08h7.076v6.938c-2.497-1.803-4.856-3.746-7.215-5.827 0-.416.14-.833.14-1.11zm-.555 3.608c1.665 1.388 3.33 2.775 4.995 4.024h-5.55c.139-1.388.417-2.636.555-4.024zm-.832 5.411h6.66c-2.498 1.665-4.857 3.33-7.354 4.995.277-1.664.555-3.33.694-4.995zm-1.11 7.632a187.379 187.379 0 009.574-6.244v6.938H14.29v-.694zm-.694 4.44l7.076 4.579h-7.77c.277-1.527.555-3.053.694-4.58zm-.833 5.966h8.603c-3.191 1.804-6.244 3.608-9.435 5.272.277-1.664.555-3.468.832-5.272zm35.936 14.153H0V111h48.701v-4.162zM24.004 14.014c-3.33 3.052-4.856 8.602-3.746 13.042.416 1.665.971 3.33 2.081 4.857-.277-5.273 2.36-9.158 6.383-11.655-.416.416-1.11 1.387-1.804 2.22-2.359 3.746-2.081 7.63-1.804 7.63.278.14 4.857-4.855 6.66-7.214 1.804-2.359 3.469-4.856 4.301-7.631 1.527-5.69-3.33-14.014-3.746-14.014.417 2.22-.693 5.411-2.22 6.799-1.803 2.08-4.023 4.162-6.105 5.966zm5.134 14.013c-1.804 1.804-3.746 3.608-4.578 5.967-.555 1.526.138 3.607 1.526 4.44-.278-1.665.555-2.914 1.665-4.024 1.942-2.22 4.301-4.301 6.244-6.66 2.08-2.497 4.023-4.995 4.995-8.047.555-1.665.97-3.47.554-5.412a24.147 24.147 0 01-2.497 4.579c-2.22 3.469-5.134 6.383-7.909 9.157z"></path>
    <path d="M21.646 33.855c-1.804-2.914-2.913-5.966-3.052-9.435-.139-3.33.97-6.521 2.22-9.713-3.192.833-6.105 4.718-5.966 7.91 0 4.855 3.33 8.186 6.798 11.238zm6.798-26.917c1.11-2.082.278-5.55-1.526-6.938-.278 2.498-.416 4.856-1.665 7.215-1.11 2.22-2.914 4.024-4.995 5.55 3.469-1.249 6.66-2.498 8.186-5.828z"></path>
  </symbol>
  <symbol fill="currentColor" xmlns="http://www.w3.org/2000/svg" viewBox="0 0 48 48" id="check">
    <path fill-rule="evenodd" clip-rule="evenodd" d="M24 48c13.255 0 24-10.745 24-24S37.255 0 24 0 0 10.745 0 24s10.745 24 24 24zm14.623-32.68a2.5 2.5 0 10-4.246-2.64L22.041 32.504l-6.773-6.773a2.5 2.5 0 00-3.536 3.536l8.11 8.11a3.5 3.5 0 005.446-.627l13.335-21.43z"></path>
  </symbol>
  <symbol fill="currentColor" xmlns="http://www.w3.org/2000/svg" viewBox="0 0 66 48" id="benefit">
    <path fill-rule="evenodd" clip-rule="evenodd" d="M39.995 16c4.142 0 7.5-3.582 7.5-8s-3.358-8-7.5-8c-4.142 0-7.5 3.582-7.5 8s3.358 8 7.5 8zM0 21.334v23.324c0 .74.585 1.32 1.3 1.32h4.94c.728 0 1.3-.58 1.3-1.32V21.334c0-.726-.572-1.32-1.3-1.32H1.3c-.715 0-1.3.594-1.3 1.32zm11.14 1.703c.742-.502 1.613-.937 2.6-1.32 4.59-1.769 9.764-1.65 14.6.343l5.29 2.165s5.306.9 7.073 2.442c2.252 7.936-6.272 6.78-13 5.867l-.007-.001-.55-.075c-2.18-.293-2.578 1.121-2.721 1.834-.143.713.665 1.787 1.367 1.932 1.287.264 5.16.99 9.009.99 3.666 0 7.306-.66 8.658-3.01.494-.475 1.326-1.61 1.404-3.867l12.636-7.735a5.422 5.422 0 014.212-.74c1.482.344 2.717 1.268 3.497 2.574 1.547 2.614.728 6.046-1.82 7.656L45.59 43.272c-4.381 2.746-9.36 4.172-14.417 4.172-1.846 0-3.692-.185-5.525-.568L11.14 43.88V23.037z"></path>
  </symbol>
  <symbol fill="currentColor" xmlns="http://www.w3.org/2000/svg" viewBox="0 0 50 46" id="quality">
    <path fill-rule="evenodd" clip-rule="evenodd" d="M21.367.216c3.836-.885 7.801 1.014 9.387 4.5 1.734 3.799 1.31 8.06.812 10.512H43.46a5.041 5.041 0 015.034 5.034 4.962 4.962 0 01-.811 2.748 5.001 5.001 0 012.14 4.113c0 2.12-1.31 3.947-3.173 4.684a5.018 5.018 0 01-2.674 6.842c.332.646.516 1.383.516 2.176 0 2.767-2.268 5.035-5.034 5.035h-9.516c-4.26 0-9.94-.904-14.699-2.656.13-.387.185-.811.185-1.235V16.61l2.25-.295 2.766-6.805-.313-7.672A1.575 1.575 0 0121.367.216zM.4 15.21c.295-.35.737-.554 1.198-.554v-.018h8.06c.885 0 1.604.72 1.604 1.604v25.764c0 .904-.72 1.604-1.604 1.604H5.176c-.793 0-1.475-.59-1.586-1.383L.012 16.501c-.055-.48.074-.94.388-1.291z"></path>
  </symbol>
  <symbol fill="currentColor" xmlns="http://www.w3.org/2000/svg" viewBox="0 0 56 64" id="engineer">
    <path d="M54.916 37.24l-5.183-7.876c-.269-.471-.403-1.01-.47-1.548-.876-9.693-8.482-17.433-18.175-18.376a6.331 6.331 0 01-2.154 5.385l-3.432 2.894 1.077 4.375c.47 1.885 0 3.837-1.212 5.385-1.212 1.481-3.029 2.424-4.98 2.424-1.145 0-2.29-.27-3.3-.875l-3.836-2.356-3.77 2.355c-.134.135-.336.202-.538.27v.336c0 6.664 3.164 13.126 8.145 17.366.606.539.942 1.212.942 2.02v11.577c0 .942.74 1.683 1.616 1.75l17.433 1.48c1.077.068 1.952-.74 1.952-1.75v-8.211c0-.538.471-.942.942-.942h6.058c1.885 0 3.366-1.549 3.366-3.366v-8.212c0-.336.27-.673.673-.673h2.962c1.817.067 2.894-1.952 1.884-3.433z"></path>
    <path d="M14.398 22.095l5.115 3.096c1.414.875 3.231-.404 2.827-2.02l-1.413-5.788c-.135-.673.067-1.414.605-1.885l4.578-3.904c1.278-1.077.605-3.163-1.078-3.298l-5.99-.471c-.673-.067-1.346-.471-1.616-1.144l-2.288-5.52a1.9 1.9 0 00-3.5 0l-2.289 5.52c-.269.673-.875 1.077-1.615 1.144l-5.99.471C.06 8.363-.614 10.45.665 11.526l4.577 3.905c.539.471.74 1.211.606 1.885l-1.413 5.856c-.404 1.615 1.413 2.894 2.827 2.019l5.115-3.096c.673-.337 1.414-.337 2.02 0z"></path>
  </symbol>
  <symbol fill="currentColor" xmlns="http://www.w3.org/2000/svg" viewBox="0 0 27 15" id="slide">
    <path d="M26.354 4.256l-3.182-3.182a.5.5 0 10-.707.708l2.328 2.328H8v1h16.793l-2.328 2.328a.5.5 0 10.707.708l3.182-3.182a.5.5 0 000-.708zm-25.708 6l3.182-3.182a.5.5 0 11.708.708L2.207 10.11H19v1H2.207l2.329 2.328a.5.5 0 11-.708.707l-3.182-3.18a.5.5 0 010-.708z"></path>
  </symbol>
</svg>