<svg width="140" height="101" viewBox="0 0 140 101" fill="none" xmlns="http://www.w3.org/2000/svg">
<path fill-rule="evenodd" clip-rule="evenodd" d="M70.2186 72.6425C83.1951 72.6425 93.7145 62.123 93.7145 49.1466C93.7145 36.1701 83.1951 25.6506 70.2186 25.6506C57.2421 25.6506 46.7227 36.1701 46.7227 49.1466C46.7227 62.123 57.2421 72.6425 70.2186 72.6425ZM70.2186 75.6425C84.8519 75.6425 96.7145 63.7799 96.7145 49.1466C96.7145 34.5133 84.8519 22.6506 70.2186 22.6506C55.5853 22.6506 43.7227 34.5133 43.7227 49.1466C43.7227 63.7799 55.5853 75.6425 70.2186 75.6425Z" fill="white"/>
<path fill-rule="evenodd" clip-rule="evenodd" d="M125.469 92.762C131.777 92.762 136.891 87.6483 136.891 81.3401C136.891 75.032 131.777 69.9182 125.469 69.9182C119.161 69.9182 114.047 75.032 114.047 81.3401C114.047 87.6483 119.161 92.762 125.469 92.762ZM125.469 95.762C133.434 95.762 139.891 89.3051 139.891 81.3401C139.891 73.3751 133.434 66.9182 125.469 66.9182C117.504 66.9182 111.047 73.3751 111.047 81.3401C111.047 89.3051 117.504 95.762 125.469 95.762Z" fill="white"/>
<path fill-rule="evenodd" clip-rule="evenodd" d="M125.469 31.0745C131.777 31.0745 136.891 25.9608 136.891 19.6526C136.891 13.3445 131.777 8.23071 125.469 8.23071C119.161 8.23071 114.047 13.3445 114.047 19.6526C114.047 25.9608 119.161 31.0745 125.469 31.0745ZM125.469 34.0745C133.434 34.0745 139.891 27.6176 139.891 19.6526C139.891 11.6876 133.434 5.23071 125.469 5.23071C117.504 5.23071 111.047 11.6876 111.047 19.6526C111.047 27.6176 117.504 34.0745 125.469 34.0745Z" fill="white"/>
<path fill-rule="evenodd" clip-rule="evenodd" d="M14.9649 31.0745C21.273 31.0745 26.3868 25.9608 26.3868 19.6526C26.3868 13.3445 21.273 8.23071 14.9649 8.23071C8.65673 8.23071 3.54297 13.3445 3.54297 19.6526C3.54297 25.9608 8.65673 31.0745 14.9649 31.0745ZM14.9649 34.0745C22.9299 34.0745 29.3868 27.6176 29.3868 19.6526C29.3868 11.6876 22.9299 5.23071 14.9649 5.23071C6.99987 5.23071 0.542969 11.6876 0.542969 19.6526C0.542969 27.6176 6.99987 34.0745 14.9649 34.0745Z" fill="white"/>
<path fill-rule="evenodd" clip-rule="evenodd" d="M14.9649 92.762C21.273 92.762 26.3868 87.6483 26.3868 81.3401C26.3868 75.032 21.273 69.9182 14.9649 69.9182C8.65673 69.9182 3.54297 75.032 3.54297 81.3401C3.54297 87.6483 8.65673 92.762 14.9649 92.762ZM14.9649 95.762C22.9299 95.762 29.3868 89.3051 29.3868 81.3401C29.3868 73.3751 22.9299 66.9182 14.9649 66.9182C6.99987 66.9182 0.542969 73.3751 0.542969 81.3401C0.542969 89.3051 6.99987 95.762 14.9649 95.762Z" fill="white"/>
<path fill-rule="evenodd" clip-rule="evenodd" d="M107.198 71.2505C106.777 71.9641 105.858 72.2014 105.144 71.7806L99.0912 68.2107C98.3777 67.7898 98.1404 66.8702 98.5612 66.1566C98.982 65.4431 99.9017 65.2058 100.615 65.6266L106.668 69.1965C107.382 69.6173 107.619 70.537 107.198 71.2505Z" fill="white"/>
<path fill-rule="evenodd" clip-rule="evenodd" d="M98.5598 33.0162C98.9806 33.7297 99.9002 33.967 100.614 33.5462L106.667 29.9763C107.38 29.5555 107.618 28.6358 107.197 27.9223C106.776 27.2087 105.856 26.9714 105.143 27.3922L99.0898 30.9621C98.3762 31.383 98.1389 32.3026 98.5598 33.0162Z" fill="white"/>
<path fill-rule="evenodd" clip-rule="evenodd" d="M41.8738 33.0162C41.453 33.7297 40.5334 33.967 39.8198 33.5462L33.7668 29.9763C33.0532 29.5555 32.8159 28.6358 33.2367 27.9223C33.6576 27.2087 34.5772 26.9714 35.2908 27.3922L41.3438 30.9621C42.0574 31.383 42.2947 32.3026 41.8738 33.0162Z" fill="white"/>
<path fill-rule="evenodd" clip-rule="evenodd" d="M41.8738 66.1562C41.453 65.4426 40.5334 65.2053 39.8198 65.6262L33.7668 69.1961C33.0532 69.6169 32.8159 70.5365 33.2367 71.2501C33.6576 71.9637 34.5772 72.201 35.2908 71.7801L41.3438 68.2102C42.0574 67.7894 42.2947 66.8698 41.8738 66.1562Z" fill="white"/>
</svg>
