<svg width="112" height="101" viewBox="0 0 112 101" fill="none" xmlns="http://www.w3.org/2000/svg">
<path fill-rule="evenodd" clip-rule="evenodd" d="M3.21839 17.4951C3.21622 17.52 3.21525 17.5367 3.21484 17.5449V17.5732C3.21525 17.5814 3.21622 17.5981 3.21839 17.623C3.22358 17.6828 3.23561 17.7892 3.26292 17.9358C3.31748 18.2285 3.43316 18.6822 3.67817 19.2456C4.16385 20.3625 5.1795 21.9613 7.32946 23.6093C11.6556 26.9255 20.6725 30.5085 39.3313 30.5085C41.3274 30.5085 44.1529 30.3701 46.1507 30.2723C46.3453 30.2628 46.5321 30.2536 46.7095 30.245L46.8547 33.2415C46.6773 33.2501 46.489 33.2594 46.2916 33.269C44.3096 33.3662 41.407 33.5085 39.3313 33.5085C20.3736 33.5085 10.5824 29.8828 5.50434 25.9903C4.59546 25.2936 3.84089 24.5906 3.21484 23.9026V32.4005C3.21487 32.4015 3.21491 32.4025 3.21495 32.4038C3.21535 32.4151 3.21644 32.4401 3.21919 32.478C3.22469 32.5538 3.23683 32.6806 3.26335 32.8515C3.31642 33.1933 3.42686 33.7104 3.65632 34.348C4.11281 35.6165 5.04909 37.3876 6.98686 39.2225C10.8617 42.8918 18.9276 46.9814 35.6865 47.5009L35.5935 50.4995C18.4272 49.9674 9.53056 45.7629 4.92412 41.4009C4.26758 40.7792 3.70198 40.1576 3.21484 39.5478V48.4149C3.21487 48.4157 3.2149 48.4166 3.21493 48.4177C3.21531 48.4284 3.21633 48.4525 3.21895 48.4891C3.22418 48.5622 3.23574 48.685 3.26104 48.8508C3.31167 49.1825 3.4171 49.6851 3.63631 50.3063C4.07249 51.5423 4.96699 53.2712 6.8173 55.0741C10.5148 58.6769 18.2143 62.7441 34.227 63.4602L34.093 66.4572C17.6605 65.7223 9.13743 61.5234 4.72368 57.2227C4.1516 56.6653 3.65166 56.109 3.21484 55.5622V64.2749C3.21488 64.2761 3.21493 64.2776 3.215 64.2794C3.21546 64.2921 3.2167 64.3194 3.21979 64.3605C3.22598 64.4426 3.23956 64.5791 3.26914 64.7624C3.32831 65.1289 3.45124 65.681 3.70632 66.3582C4.21349 67.7046 5.25424 69.5765 7.41097 71.485C11.7302 75.3073 20.7122 79.4304 39.3313 79.4304V82.4304C20.3339 82.4304 10.5078 78.2315 5.42284 73.7317C2.87751 71.4792 1.56722 69.19 0.898881 67.4156C0.566201 66.5324 0.39526 65.7842 0.307485 65.2405C0.263594 64.9686 0.240446 64.7475 0.228266 64.5859C0.222174 64.505 0.218819 64.4389 0.216987 64.3886C0.216071 64.3635 0.215535 64.3423 0.215228 64.3252L0.214921 64.3026L0.214861 64.2937L0.214848 64.2898C0.214845 64.288 0.214844 64.2862 1.71484 64.2862H0.214844V17.527H1.71484C0.214844 17.527 0.214845 17.5251 0.214849 17.523L0.214866 17.5187L0.214941 17.509L0.215309 17.4855C0.21567 17.4681 0.216288 17.4471 0.217318 17.4226C0.219377 17.3737 0.223083 17.3109 0.229668 17.2352C0.242838 17.0837 0.267543 16.8804 0.313703 16.6327C0.406084 16.137 0.584285 15.4643 0.92703 14.6761C1.61686 13.0898 2.95224 11.0842 5.50434 9.12785C10.5824 5.23531 20.3736 1.60962 39.3313 1.60962C58.289 1.60962 68.0803 5.23531 73.1583 9.12785C75.7104 11.0842 77.0458 13.0898 77.7356 14.6761C78.0783 15.4643 78.2565 16.137 78.3489 16.6327C78.3951 16.8804 78.4198 17.0837 78.433 17.2352C78.4395 17.3109 78.4432 17.3737 78.4453 17.4226C78.4463 17.4471 78.447 17.4681 78.4473 17.4855L78.4477 17.509L78.4478 17.5187L78.4478 17.523C78.4478 17.5251 78.4478 17.527 76.9478 17.527H78.4478V22.3857H76.6524C76.4397 22.6964 76.202 23.0146 75.9364 23.3379L73.6183 21.4334C74.5732 20.2711 75.0272 19.2465 75.2447 18.5504C75.354 18.2005 75.4048 17.9296 75.4283 17.7615C75.44 17.6774 75.4449 17.6191 75.4468 17.5896C75.4473 17.5824 75.4476 17.5769 75.4478 17.5732V17.5449C75.4474 17.5368 75.4464 17.52 75.4442 17.4951C75.439 17.4353 75.427 17.3289 75.3997 17.1824C75.3451 16.8896 75.2295 16.4359 74.9845 15.8725C74.4988 14.7556 73.4831 13.1569 71.3332 11.5088C67.007 8.19264 57.9901 4.60962 39.3313 4.60962C20.6725 4.60962 11.6556 8.19264 7.32946 11.5088C5.1795 13.1569 4.16385 14.7556 3.67817 15.8725C3.43316 16.4359 3.31748 16.8896 3.26292 17.1824C3.23561 17.3289 3.22358 17.4353 3.21839 17.4951Z" fill="white"/>
<path fill-rule="evenodd" clip-rule="evenodd" d="M71.7964 23.635C51.7073 23.635 35.4219 39.9204 35.4219 60.0095C35.4219 80.0986 51.7073 96.384 71.7964 96.384C91.8855 96.384 108.171 80.0986 108.171 60.0095C108.171 39.9204 91.8855 23.635 71.7964 23.635ZM32.4219 60.0095C32.4219 38.2636 50.0504 20.635 71.7964 20.635C93.5423 20.635 111.171 38.2636 111.171 60.0095C111.171 81.7554 93.5423 99.384 71.7964 99.384C50.0504 99.384 32.4219 81.7554 32.4219 60.0095Z" fill="white"/>
</svg>
