<svg width="143" height="101" viewBox="0 0 143 101" fill="none" xmlns="http://www.w3.org/2000/svg">
<path fill-rule="evenodd" clip-rule="evenodd" d="M56.6982 62.0149V38.9766C56.6982 31.9005 50.962 26.1643 43.886 26.1643C36.81 26.1643 31.0737 31.9005 31.0737 38.9765V62.0149C31.0737 69.0909 36.81 74.8271 43.886 74.8271C50.962 74.8271 56.6982 69.0909 56.6982 62.0149ZM43.886 23.1643C35.1531 23.1643 28.0737 30.2437 28.0737 38.9765V62.0149C28.0737 70.7477 35.1531 77.8271 43.886 77.8271C52.6188 77.8271 59.6982 70.7477 59.6982 62.0149V38.9766C59.6982 30.2437 52.6188 23.1643 43.886 23.1643Z" fill="white"/>
<path fill-rule="evenodd" clip-rule="evenodd" d="M98.3237 62.0149V38.9766C98.3237 31.9005 92.5875 26.1643 85.5115 26.1643C78.4355 26.1643 72.6992 31.9005 72.6992 38.9765V62.0149C72.6992 69.0909 78.4355 74.8271 85.5115 74.8271C92.5875 74.8271 98.3237 69.0909 98.3237 62.0149ZM85.5115 23.1643C76.7786 23.1643 69.6992 30.2437 69.6992 38.9765V62.0149C69.6992 70.7477 76.7786 77.8271 85.5115 77.8271C94.2443 77.8271 101.324 70.7477 101.324 62.0149V38.9766C101.324 30.2437 94.2443 23.1643 85.5115 23.1643Z" fill="white"/>
<path fill-rule="evenodd" clip-rule="evenodd" d="M139.948 62.0149V38.9766C139.948 31.9005 134.212 26.1643 127.136 26.1643C120.06 26.1643 114.324 31.9005 114.324 38.9765V62.0149C114.324 69.0909 120.06 74.8271 127.136 74.8271C134.212 74.8271 139.948 69.0909 139.948 62.0149ZM127.136 23.1643C118.403 23.1643 111.324 30.2437 111.324 38.9765V62.0149C111.324 70.7477 118.403 77.8271 127.136 77.8271C135.869 77.8271 142.948 70.7477 142.948 62.0149V38.9766C142.948 30.2437 135.869 23.1643 127.136 23.1643Z" fill="white"/>
<path fill-rule="evenodd" clip-rule="evenodd" d="M13.0844 24.0988C13.5532 24.3654 13.8428 24.8632 13.8428 25.4026V75.5896C13.8428 76.4181 13.1712 77.0896 12.3428 77.0896C11.5144 77.0896 10.8428 76.4181 10.8428 75.5896V28.0396L3.12574 32.6283C2.41369 33.0517 1.49322 32.8176 1.06982 32.1056C0.646427 31.3935 0.880435 30.4731 1.59249 30.0497L11.5762 24.1133C12.0398 23.8376 12.6156 23.8321 13.0844 24.0988Z" fill="white"/>
</svg>
