<svg width="41" height="59" viewBox="0 0 41 59" fill="none" xmlns="http://www.w3.org/2000/svg">
<path d="M0.605469 21.5383C0.605469 33.9792 13.3919 49.5302 20.3035 58.8608C27.553 49.5302 40.0015 33.9792 40.0015 22.5751C40.0015 9.09748 30.6708 0.803589 20.3035 0.803589C8.89936 0.803589 0.605469 10.1342 0.605469 21.5383Z" fill="#B70A17"/>
<path d="M32.9828 21.8665C32.9828 21.942 32.9828 22.0175 32.9828 22.093C32.9752 22.1459 32.9601 22.2063 32.9601 22.2591C32.945 23.0518 32.8015 23.8295 32.5673 24.5845C32.4162 25.0601 32.2274 25.5207 32.0159 25.9661C31.7288 26.5777 31.3435 27.1364 30.9129 27.6573C30.369 28.3217 29.7421 28.9031 29.0395 29.3863C28.2539 29.9298 27.4003 30.3451 26.4787 30.6093C25.9574 30.7603 25.4362 30.8736 24.8998 30.9264C24.7714 30.9415 24.7412 30.9113 24.7412 30.7754C24.7261 29.9525 24.8092 29.122 24.6883 28.3066C24.6581 28.0726 24.6354 27.8461 24.6052 27.612C24.5977 27.5214 24.6203 27.4837 24.711 27.4686C25.1718 27.4233 25.6175 27.2949 26.0481 27.1213C26.6146 26.8948 27.1283 26.5777 27.5816 26.1775C28.3521 25.498 28.9111 24.6826 29.2359 23.7087C29.4021 23.2255 29.5003 22.7272 29.5305 22.2138C29.5834 21.5343 29.4701 20.8699 29.2661 20.2131C29.0093 19.3675 28.5636 18.6276 27.9517 18.0009C26.9319 16.959 25.693 16.3701 24.2426 16.2871C23.3512 16.2418 22.4598 16.2569 21.5684 16.2569C20.5713 16.2493 19.5741 16.2569 18.577 16.2569C17.0586 16.2569 15.5327 16.2569 14.0143 16.2569C13.8556 16.2569 13.8254 16.2946 13.8783 16.4456C13.9236 16.574 13.9614 16.7023 14.0067 16.8231C14.3542 17.7065 14.9434 18.3935 15.6535 18.9673C16.4467 19.6091 17.323 20.13 18.1993 20.6434C19.068 21.1493 19.9216 21.6778 20.7224 22.2742C21.9008 23.15 22.8451 24.2372 23.4645 25.5811C23.7138 26.1247 23.9102 26.6909 24.0009 27.2874C24.0689 27.7253 24.1595 28.1707 24.1822 28.6162C24.22 29.3712 24.2048 30.1337 24.2124 30.8887C24.2124 30.9868 24.1746 31.0095 24.084 31.0019C23.8725 30.9944 23.6534 30.9944 23.4419 30.9944C19.2644 30.9944 15.0794 30.9944 10.902 30.9944C10.8415 30.9944 10.7887 30.9868 10.7056 30.9793C10.7509 30.6773 10.766 30.3904 10.8415 30.1186C10.9775 29.6052 11.2192 29.1371 11.5818 28.737C12.2617 27.9895 13.1002 27.5818 14.1125 27.5743C15.933 27.5592 17.7611 27.5667 19.5817 27.5667C19.8612 27.5667 20.1483 27.5667 20.4278 27.5667C20.5335 27.5667 20.5864 27.5441 20.526 27.4233C20.4731 27.3251 20.4504 27.2043 20.4051 27.1062C20.0425 26.2757 19.4608 25.6264 18.7507 25.0828C17.8971 24.4184 16.9604 23.8899 16.0312 23.3387C14.9888 22.7196 13.969 22.0855 13.0473 21.2852C11.6272 20.047 10.6678 18.5445 10.2825 16.6948C10.1541 16.0681 10.0786 15.4339 10.071 14.7922C10.0483 14.1731 10.0559 13.554 10.0559 12.9349C10.0559 12.9123 10.0635 12.8896 10.071 12.8519C10.1239 12.8519 10.1692 12.8519 10.2145 12.8519C11.9142 12.8519 13.6139 12.8519 15.3136 12.8519C18.0935 12.8519 20.8735 12.8594 23.6609 12.8519C24.3484 12.8519 25.0207 12.8972 25.693 13.0331C26.4862 13.1916 27.2416 13.4559 27.9593 13.8107C28.8884 14.2788 29.7043 14.8828 30.4295 15.6302C31.1773 16.4003 31.7741 17.2761 32.1896 18.2576C32.386 18.7106 32.5446 19.1863 32.6731 19.6695C32.7939 20.13 32.8544 20.5981 32.9224 21.0738C32.9601 21.338 32.9677 21.6023 32.9828 21.8665Z" fill="white"/>
</svg>
