<svg width="108" height="100" viewBox="0 0 108 100" fill="none" xmlns="http://www.w3.org/2000/svg">
<path fill-rule="evenodd" clip-rule="evenodd" d="M84.3081 93.2094C83.9669 93.5552 83.4313 93.9158 82.7167 93.9158C82.0375 93.9158 81.5121 93.5941 81.1605 93.2604C80.8199 92.9371 80.5642 92.5342 80.3656 92.1459C79.9667 91.3661 79.6356 90.3186 79.3457 89.123C78.7597 86.707 78.2563 83.3149 77.8048 79.3253C76.9006 71.3363 76.1785 60.7031 75.4598 50.1182L75.4577 50.0884C74.7366 39.4687 74.0186 28.9 73.1228 20.9856C72.674 17.0198 72.187 13.7824 71.6474 11.5577C71.4836 10.8822 71.3224 10.3326 71.1685 9.90105C71.0281 10.2806 70.8807 10.7558 70.7302 11.3341C70.1939 13.3951 69.7081 16.4022 69.2595 20.0966C68.3645 27.4675 67.6468 37.3125 66.9255 47.2122L66.9231 47.2444C66.2046 57.1068 65.4823 67.0209 64.5775 74.4715C64.1258 78.1918 63.6212 81.3637 63.032 83.628C62.7406 84.748 62.4053 85.7396 61.9977 86.4823C61.6612 87.0954 60.9426 88.1488 59.6671 88.1488C58.4477 88.1488 57.7225 87.2007 57.3606 86.5895C56.9431 85.8842 56.6029 84.9484 56.3096 83.9034C55.7165 81.7901 55.2104 78.8378 54.7583 75.3866C53.8529 68.4739 53.1302 59.2784 52.412 50.1386L52.4093 50.1043C51.6878 40.9245 50.9706 31.8034 50.0764 24.9766C49.628 21.5537 49.1437 18.7776 48.6114 16.881C48.4385 16.2652 48.2711 15.7813 48.1156 15.4161C47.9746 15.7329 47.8221 16.1453 47.6638 16.665C47.1363 18.3965 46.6538 20.9407 46.2059 24.0918C45.3128 30.3741 44.596 38.7706 43.8744 47.2307L43.8712 47.2679C43.1533 55.6848 42.4302 64.1618 41.5239 70.537C41.0715 73.7193 40.5636 76.453 39.9656 78.4159C39.6699 79.3866 39.3238 80.2666 38.895 80.9339C38.5062 81.5391 37.7771 82.3818 36.6174 82.3818C35.5208 82.3818 34.7914 81.6437 34.3744 81.0501C33.9329 80.4218 33.5798 79.5978 33.281 78.7006C32.677 76.887 32.1667 74.3712 31.7138 71.4573C30.8064 65.6191 30.0828 57.86 29.3653 50.1664L29.3615 50.126C28.6396 42.3855 27.9236 34.7141 27.0318 28.977C26.5844 26.0981 26.1042 23.7866 25.5828 22.2211C25.3955 21.6587 25.2185 21.2419 25.0621 20.9483C24.9205 21.1987 24.7593 21.5482 24.5873 22.0165C24.0735 23.415 23.5964 25.4927 23.1496 28.099C22.2597 33.2901 21.5445 40.2354 20.8223 47.2567L20.8178 47.3007C20.1009 54.2707 19.3766 61.3125 18.4676 66.6145C18.0141 69.2604 17.5008 71.5594 16.8891 73.2247C16.5861 74.0492 16.2246 74.8166 15.7691 75.4043C15.3236 75.9793 14.5982 76.6147 13.5678 76.6147C12.6063 76.6147 11.8901 76.0786 11.417 75.5309C10.9465 74.9862 10.5748 74.2768 10.2664 73.5237C9.64485 72.0059 9.12758 69.9223 8.67303 67.5437C7.76212 62.7771 7.03685 56.4519 6.32069 50.206L6.31515 50.1576C5.59251 43.8553 4.87856 37.6371 3.99107 32.993C3.54525 30.6601 3.0721 28.8175 2.56819 27.587C2.31387 26.9659 2.08906 26.5956 1.92365 26.4041C1.90409 26.3815 1.88748 26.3636 1.8738 26.3498C1.12501 26.2657 0.542969 25.6303 0.542969 24.8589C0.542969 24.0303 1.21454 23.3586 2.04297 23.3586C3.0045 23.3586 3.72068 23.8948 4.19377 24.4425C4.66425 24.9872 5.03593 25.6966 5.34435 26.4497C5.96591 27.9675 6.48317 30.0511 6.93773 32.4297C7.84864 37.1963 8.5739 43.5215 9.29006 49.7674L9.29561 49.8158C10.0182 56.1181 10.7322 62.3363 11.6197 66.9804C12.0655 69.3133 12.5387 71.1559 13.0426 72.3864C13.2258 72.8339 13.3937 73.1512 13.5352 73.3652C13.6913 73.1111 13.8749 72.7293 14.0731 72.1898C14.5869 70.7913 15.064 68.7136 15.5108 66.1074C16.4007 60.9163 17.1159 53.9709 17.8381 46.9496L17.8426 46.9056C18.5595 39.9356 19.2838 32.8938 20.1927 27.5919C20.6463 24.946 21.1596 22.6469 21.7713 20.9817C22.0742 20.1571 22.4358 19.3897 22.8913 18.802C23.3368 18.2271 24.0621 17.5916 25.0926 17.5916C26.1892 17.5916 26.9186 18.3297 27.3356 18.9233C27.7771 19.5516 28.1302 20.3756 28.429 21.2727C29.0331 23.0864 29.5433 25.6022 29.9962 28.5161C30.9037 34.3542 31.6273 42.1134 32.3448 49.807L32.3485 49.8474C33.0704 57.5879 33.7865 65.2593 34.6782 70.9964C35.1257 73.8753 35.6058 76.1868 36.1272 77.7523C36.2914 78.2451 36.4475 78.6261 36.5889 78.9104C36.7451 78.5801 36.9167 78.1294 37.0958 77.5414C37.6233 75.8099 38.1058 73.2656 38.5538 70.1146C39.4469 63.8322 40.1636 55.4357 40.8853 46.9757L40.8884 46.9385C41.6064 38.5216 42.3294 30.0446 43.2357 23.6694C43.6882 20.487 44.1961 17.7534 44.7941 15.7904C45.0898 14.8198 45.4358 13.9397 45.8646 13.2724C46.2535 12.6673 46.9826 11.8246 48.1422 11.8246C49.3616 11.8246 50.0868 12.7727 50.4487 13.3839C50.8662 14.0892 51.2064 15.025 51.4997 16.07C52.0928 18.1832 52.5989 21.1356 53.051 24.5868C53.9564 31.4994 54.679 40.6946 55.3973 49.8342L55.4 49.8691C56.1215 59.0489 56.8387 68.17 57.7329 74.9968C58.1813 78.4197 58.6656 81.1958 59.1979 83.0924C59.3518 83.6407 59.5014 84.0845 59.6421 84.4329C59.7969 84.0341 59.9609 83.5173 60.1287 82.8722C60.665 80.8112 61.1508 77.8042 61.5994 74.1097C62.4945 66.7389 63.2122 56.8938 63.9334 46.9941L63.9358 46.9619C64.6543 37.0995 65.3767 27.1854 66.2814 19.7349C66.7331 16.0146 67.2377 12.8427 67.8269 10.5784C68.1184 9.45839 68.4536 8.46679 68.8612 7.72409C69.1978 7.11097 69.9164 6.05756 71.1919 6.05756C71.8711 6.05756 72.3965 6.3793 72.7481 6.71297C73.0887 7.03626 73.3443 7.4392 73.543 7.82745C73.9419 8.60725 74.2729 9.6548 74.5629 10.8504C75.1488 13.2664 75.6522 16.6585 76.1038 20.6481C77.0079 28.6369 77.73 39.2698 78.4488 49.8545L78.4508 49.885C79.172 60.5047 79.89 71.0734 80.7857 78.9878C81.2346 82.9536 81.7216 86.191 82.2611 88.4157C82.4089 89.025 82.5545 89.5319 82.6947 89.9421C82.8479 89.4784 83.0067 88.8961 83.1673 88.1892C83.7095 85.8015 84.1975 82.3343 84.6465 78.0973C85.5428 69.6397 86.2611 58.3477 86.9821 47.008L86.9839 46.9798C87.7029 35.6727 88.4247 24.3203 89.3284 15.7928C89.7798 11.5337 90.2822 7.92089 90.8655 5.35254C91.1542 4.08089 91.4818 2.97713 91.873 2.16034C92.0671 1.75511 92.3165 1.3352 92.6501 0.997001C92.9913 0.651201 93.5269 0.290527 94.2415 0.290527C94.9912 0.290527 95.5353 0.691666 95.8648 1.04694C96.1913 1.39888 96.4347 1.83484 96.6249 2.25717C97.0094 3.11099 97.3339 4.27124 97.6217 5.61933C98.2027 8.34054 98.7043 12.1746 99.1556 16.7032C100.059 25.7696 100.781 37.8416 101.5 49.8708L101.501 49.8971C102.222 61.9571 102.941 73.9721 103.838 82.9726C104.287 87.4807 104.775 91.1772 105.32 93.7274C105.595 95.0151 105.867 95.9257 106.118 96.4839C106.173 96.6047 106.221 96.6973 106.261 96.766C106.847 96.9706 107.266 97.5275 107.266 98.1826C107.266 99.0112 106.595 99.6829 105.766 99.6829C105.017 99.6829 104.473 99.2817 104.143 98.9264C103.817 98.5745 103.573 98.1385 103.383 97.7162C102.998 96.8624 102.674 95.7021 102.386 94.3541C101.805 91.6328 101.304 87.7988 100.852 83.2701C99.949 74.2038 99.2273 62.1318 98.5082 50.1026L98.5066 50.0762C97.7856 38.0163 97.0671 26.0013 96.1703 17.0008C95.7212 12.4927 95.2324 8.79616 94.6879 6.24595C94.5301 5.50683 94.3732 4.89192 94.2207 4.39659C94.0808 4.83724 93.9366 5.37589 93.791 6.01714C93.2487 8.40483 92.7607 11.8721 92.3117 16.1091C91.4154 24.5666 90.6971 35.8586 89.9761 47.1984L89.9742 47.2273C89.2553 58.5341 88.5335 69.8863 87.6298 78.4136C87.1784 82.6726 86.676 86.2855 86.0927 88.8538C85.804 90.1255 85.4764 91.2292 85.0852 92.046C84.8911 92.4512 84.6418 92.8712 84.3081 93.2094ZM59.184 85.3128C59.1838 85.3114 59.192 85.3015 59.209 85.2871C59.1927 85.307 59.1842 85.3141 59.184 85.3128ZM60.0859 85.2708C60.1004 85.2826 60.1075 85.2906 60.1074 85.2917C60.1073 85.2928 60.1001 85.2869 60.0859 85.2708ZM36.2246 79.5026C36.2245 79.5018 36.2302 79.4957 36.2419 79.4867C36.2305 79.4988 36.2246 79.5033 36.2246 79.5026ZM36.9446 79.4686C36.9533 79.475 36.9576 79.4792 36.9576 79.4797C36.9576 79.4802 36.9532 79.477 36.9446 79.4686ZM13.2861 73.6894C13.2861 73.6891 13.2889 73.6866 13.2946 73.6827C13.2889 73.6877 13.2861 73.6897 13.2861 73.6894ZM13.7799 73.663C13.7832 73.6651 13.7849 73.6664 13.7849 73.6665C13.7849 73.6666 13.7832 73.6656 13.7799 73.663ZM1.82584 26.3069C1.82584 26.3068 1.82753 26.3078 1.83092 26.3104C1.82754 26.3083 1.82584 26.307 1.82584 26.3069ZM25.3743 20.5169C25.3743 20.5172 25.3715 20.5197 25.3657 20.5237C25.3714 20.5187 25.3743 20.5167 25.3743 20.5169ZM24.7654 20.5048C24.7567 20.4984 24.7524 20.4942 24.7524 20.4937C24.7525 20.4932 24.7568 20.4964 24.7654 20.5048ZM48.5351 14.7038C48.5352 14.7046 48.5294 14.7106 48.5177 14.7197C48.5292 14.7076 48.535 14.703 48.5351 14.7038ZM47.7234 14.7026C47.7088 14.6908 47.7018 14.6828 47.7019 14.6817C47.702 14.6806 47.7093 14.6865 47.7234 14.7026ZM71.675 8.89359C71.6751 8.89496 71.6669 8.9049 71.6499 8.91924C71.6663 8.89939 71.6748 8.89221 71.675 8.89359Z" fill="white"/>
</svg>
