<svg width="121" height="101" viewBox="0 0 121 101" fill="none" xmlns="http://www.w3.org/2000/svg">
<path fill-rule="evenodd" clip-rule="evenodd" d="M83.3707 24.4262C83.9486 23.8327 84.8983 23.82 85.4918 24.398C92.1807 30.9109 96.3379 40.0184 96.3379 50.0942C96.3379 60.17 92.1807 69.2775 85.4918 75.7904C84.8983 76.3683 83.9486 76.3557 83.3707 75.7621C82.7928 75.1686 82.8054 74.2189 83.399 73.641C89.5318 67.6695 93.3379 59.3277 93.3379 50.0942C93.3379 40.8607 89.5318 32.5188 83.399 26.5474C82.8054 25.9694 82.7928 25.0198 83.3707 24.4262ZM36.7577 25.185C37.3545 25.7595 37.3725 26.7091 36.798 27.3059C31.109 33.2155 27.6133 41.245 27.6133 50.0942C27.6133 59.3277 31.4194 67.6695 37.5522 73.641C38.1458 74.2189 38.1584 75.1686 37.5805 75.7621C37.0026 76.3557 36.0529 76.3683 35.4594 75.7904C28.7705 69.2775 24.6133 60.17 24.6133 50.0942C24.6133 40.4384 28.4313 31.6713 34.6367 25.2253C35.2113 24.6285 36.1609 24.6104 36.7577 25.185Z" fill="white"/>
<path fill-rule="evenodd" clip-rule="evenodd" d="M101.293 7.64684C101.891 7.07416 102.841 7.09518 103.413 7.69379C113.897 18.652 120.351 33.6109 120.351 50.0948C120.351 66.9955 113.566 82.2928 102.611 93.319C102.027 93.9066 101.077 93.9097 100.49 93.3258C99.9019 92.7419 99.8989 91.7921 100.483 91.2045C110.897 80.7226 117.351 66.1785 117.351 50.0948C117.351 34.4075 111.212 20.185 101.246 9.76764C100.673 9.16903 100.694 8.21951 101.293 7.64684ZM19.6601 7.64684C20.2587 8.21951 20.2797 9.16903 19.707 9.76764C9.74096 20.185 3.60156 34.4075 3.60156 50.0948C3.60156 65.7822 9.74096 80.0047 19.707 90.422C20.2797 91.0206 20.2587 91.9701 19.6601 92.5428C19.0615 93.1155 18.1119 93.0945 17.5393 92.4959C7.05582 81.5377 0.601562 66.5788 0.601562 50.0948C0.601562 33.6109 7.05582 18.652 17.5393 7.69379C18.1119 7.09518 19.0615 7.07416 19.6601 7.64684Z" fill="white"/>
<path fill-rule="evenodd" clip-rule="evenodd" d="M60.4762 55.1393C63.4122 55.1393 65.7923 52.7592 65.7923 49.8232C65.7923 46.8872 63.4122 44.5071 60.4762 44.5071C57.5403 44.5071 55.1602 46.8872 55.1602 49.8232C55.1602 52.7592 57.5403 55.1393 60.4762 55.1393ZM60.4762 58.1393C65.0691 58.1393 68.7923 54.416 68.7923 49.8232C68.7923 45.2303 65.0691 41.5071 60.4762 41.5071C55.8834 41.5071 52.1602 45.2303 52.1602 49.8232C52.1602 54.416 55.8834 58.1393 60.4762 58.1393Z" fill="white"/>
</svg>
