<svg width="201" height="101" viewBox="0 0 201 101" fill="none" xmlns="http://www.w3.org/2000/svg">
<path fill-rule="evenodd" clip-rule="evenodd" d="M3.21484 30.5013V74.4413C3.21517 74.449 3.21601 74.4654 3.21794 74.49C3.22239 74.5467 3.23259 74.6466 3.25562 74.7837C3.30166 75.0577 3.39882 75.4796 3.60341 76.0015C4.0092 77.0367 4.85157 78.5025 6.62276 80.0087C10.177 83.0312 17.6368 86.3459 33.2044 86.3459C48.772 86.3459 56.2318 83.0312 59.7861 80.0087C61.5573 78.5025 62.3996 77.0367 62.8054 76.0015C63.01 75.4796 63.1072 75.0577 63.1532 74.7837C63.1762 74.6466 63.1864 74.5467 63.1909 74.49C63.1928 74.4654 63.1936 74.449 63.194 74.4413V30.5013C62.7468 30.934 62.2344 31.3702 61.6474 31.8026C57.3388 34.9764 49.0893 37.8938 33.2044 37.8938C17.3196 37.8938 9.07003 34.9764 4.76142 31.8026C4.17441 31.3702 3.66198 30.934 3.21484 30.5013ZM66.194 74.4569H64.694C66.194 74.4569 66.194 74.4587 66.194 74.4605L66.194 74.4644L66.1939 74.4732L66.1936 74.4946C66.1933 74.5105 66.1928 74.5297 66.1919 74.5521C66.1902 74.597 66.1872 74.6547 66.1817 74.7245C66.1708 74.8639 66.1502 75.0516 66.1117 75.2807C66.0348 75.7388 65.8859 76.363 65.5985 77.0963C65.0202 78.5716 63.8945 80.453 61.7295 82.2941C57.4114 85.9661 49.1264 89.3459 33.2044 89.3459C17.2825 89.3459 8.99744 85.9661 4.67932 82.2941C2.51431 80.453 1.38859 78.5716 0.810326 77.0963C0.52289 76.363 0.37404 75.7388 0.297075 75.2807C0.258597 75.0516 0.238052 74.8639 0.22712 74.7245C0.221653 74.6547 0.218585 74.597 0.216883 74.5521C0.216032 74.5297 0.215522 74.5105 0.215225 74.4946L0.214923 74.4732L0.214862 74.4644L0.214848 74.4605C0.214845 74.4587 0.214844 74.4569 1.71484 74.4569H0.214844V24.7445H1.71484C0.214844 24.7445 0.214845 24.7425 0.214849 24.7404L0.214867 24.736L0.214944 24.7263L0.215312 24.7038C0.215668 24.6873 0.216267 24.6678 0.217241 24.6456C0.219189 24.6011 0.222636 24.5453 0.228637 24.479C0.240639 24.3464 0.262867 24.1715 0.303784 23.9606C0.38571 23.5381 0.542314 22.9724 0.84028 22.3139C1.44085 20.9868 2.5917 19.3361 4.76142 17.7379C9.07003 14.5641 17.3196 11.6467 33.2044 11.6467C49.0893 11.6467 57.3388 14.5641 61.6474 17.7379C63.8171 19.3361 64.968 20.9868 65.5685 22.3139C65.8665 22.9724 66.0231 23.5381 66.105 23.9606C66.146 24.1715 66.1682 24.3464 66.1802 24.479C66.1862 24.5453 66.1896 24.6011 66.1916 24.6456C66.1926 24.6678 66.1932 24.6873 66.1935 24.7038L66.1939 24.7263L66.194 24.736L66.194 24.7404C66.194 24.7425 66.194 24.7445 64.694 24.7445H66.194V74.4569ZM63.194 24.769C63.1937 24.7645 63.1932 24.7579 63.1924 24.7494C63.189 24.7122 63.1805 24.6379 63.1599 24.5317C63.1188 24.3199 63.0294 23.9796 62.8354 23.5508C62.4519 22.7033 61.6346 21.4545 59.8682 20.1533C56.3044 17.5282 48.8091 14.6467 33.2044 14.6467C17.5997 14.6467 10.1044 17.5282 6.54066 20.1533C4.77418 21.4545 3.95694 22.7033 3.57346 23.5508C3.3794 23.9796 3.28999 24.3199 3.24891 24.5317C3.22832 24.6379 3.2198 24.7122 3.21643 24.7494C3.21566 24.7579 3.21516 24.7645 3.21484 24.769V24.7714C3.21516 24.776 3.21566 24.7826 3.21643 24.791C3.2198 24.8283 3.22832 24.9026 3.24891 25.0088C3.28999 25.2206 3.3794 25.5609 3.57346 25.9897C3.95694 26.8372 4.77418 28.086 6.54066 29.3872C10.1044 32.0123 17.5997 34.8938 33.2044 34.8938C48.8091 34.8938 56.3044 32.0123 59.8682 29.3872C61.6346 28.086 62.4519 26.8372 62.8354 25.9897C63.0294 25.5609 63.1188 25.2206 63.1599 25.0088C63.1805 24.9026 63.189 24.8283 63.1924 24.791C63.1932 24.7826 63.1937 24.776 63.194 24.7715V24.769Z" fill="white"/>
<path fill-rule="evenodd" clip-rule="evenodd" d="M134.235 21.4529C134.235 18.9676 136.25 16.9529 138.735 16.9529H195.714C198.2 16.9529 200.214 18.9676 200.214 21.4529V79.5435C200.214 82.0288 198.2 84.0435 195.714 84.0435H138.735C136.25 84.0435 134.235 82.0288 134.235 79.5435V21.4529ZM138.735 19.9529C137.907 19.9529 137.235 20.6245 137.235 21.4529V79.5435C137.235 80.3719 137.907 81.0435 138.735 81.0435H195.714C196.543 81.0435 197.214 80.3719 197.214 79.5435V21.4529C197.214 20.6245 196.543 19.9529 195.714 19.9529H138.735Z" fill="white"/>
<path fill-rule="evenodd" clip-rule="evenodd" d="M105.395 35.8351L114.941 45.381C115.527 45.9668 115.527 46.9166 114.941 47.5024L105.395 57.0483C104.809 57.6341 103.86 57.6341 103.274 57.0483C102.688 56.4625 102.688 55.5128 103.274 54.927L110.259 47.9417H86.5498C85.7214 47.9417 85.0498 47.2701 85.0498 46.4417C85.0498 45.6133 85.7214 44.9417 86.5498 44.9417H110.259L103.274 37.9564C102.688 37.3706 102.688 36.4209 103.274 35.8351C103.86 35.2493 104.809 35.2493 105.395 35.8351Z" fill="white"/>
</svg>
