<svg width="159" height="126" viewBox="0 0 159 126" fill="none" xmlns="http://www.w3.org/2000/svg">
<path d="M49.7861 0.0734619C65.5061 0.0734619 81.2261 -0.126538 96.9461 0.133462C111.176 0.26918 124.902 5.42166 135.706 14.6835C141.822 19.6891 146.889 25.8538 150.616 32.8235C154.123 39.4522 156.442 46.6443 157.466 54.0735C159.996 72.4335 155.166 88.7035 143.356 102.873C133.136 115.133 119.936 122.203 104.196 124.593C101.276 125.043 101.196 124.993 101.256 122.013C101.256 119.453 101.256 116.893 101.256 114.333C101.26 110.496 100.962 106.664 100.366 102.873C100.146 101.113 100.366 100.873 102.046 100.603C109.177 99.575 115.838 96.4412 121.176 91.6035C127.739 85.9033 132.121 78.1034 133.576 69.5335C135.836 56.2735 132.156 44.7535 122.716 35.1735C116.749 29.0166 108.827 25.1276 100.306 24.1735C97.3157 23.8795 94.3102 23.766 91.3061 23.8335H27.6461C26.4561 23.8835 26.3361 24.0635 26.6961 25.2235C28.6833 31.435 32.4149 36.9439 37.4461 41.0935C43.8261 46.5635 51.1261 50.6635 58.3261 54.9135C64.6265 58.472 70.6413 62.5141 76.3161 67.0035C86.0061 75.0035 92.9161 84.7635 95.8361 97.0635C97.101 102.068 97.7359 107.211 97.7261 112.373C97.7261 116.053 97.7261 119.733 97.8861 123.373C97.9661 125.093 97.6661 125.303 95.9561 125.303H7.64611C7.40611 125.303 7.16611 125.303 6.92611 125.303C5.09611 125.233 4.65611 124.753 4.77611 122.963C5.52611 111.803 15.1761 102.273 26.3861 101.503C29.1861 101.313 31.9861 101.353 34.7761 101.343C46.6561 101.343 58.5361 101.343 70.4161 101.343C72.4161 101.343 72.4161 101.343 71.7561 99.5435C69.5661 93.5235 65.5461 88.9035 60.6061 85.0035C54.0661 79.8035 46.7561 75.8035 39.6061 71.5335C33.2842 67.9069 27.2647 63.7768 21.6061 59.1835C10.2961 49.6335 3.10611 37.7435 0.926113 23.0035C-0.133887 15.8035 0.00611271 8.60346 0.00611271 1.41346C0.00611271 0.443462 0.496113 0.00346189 1.42611 0.0634619C1.82611 0.0634619 2.22611 0.0634619 2.62611 0.0634619H49.7861V0.0734619ZM52.4861 4.40346H5.80611C4.88611 4.40346 4.28611 4.53346 4.29611 5.68346C4.29611 11.6835 4.29611 17.6835 5.29611 23.6135C7.44611 36.3535 13.7161 46.6935 23.3661 55.1035C29.3661 60.3635 36.1361 64.5735 42.9861 68.6335C49.8361 72.6935 56.6861 76.6335 62.9861 81.4835C68.9861 86.1935 73.6561 91.8935 76.2261 99.1835C76.5085 99.8169 76.6433 100.506 76.6204 101.199C76.5974 101.893 76.4174 102.571 76.0938 103.185C75.7703 103.798 75.3116 104.33 74.7525 104.741C74.1934 105.151 73.5483 105.429 72.8661 105.553C72.2079 105.684 71.5367 105.738 70.8661 105.713H28.1561C24.1014 105.746 20.1581 107.044 16.8772 109.427C13.5963 111.81 11.1416 115.158 9.85611 119.003C9.22611 121.003 9.23611 121.003 11.2961 121.003H91.5661C91.8459 120.988 92.1263 120.988 92.4061 121.003C93.2861 121.073 93.5861 120.683 93.5961 119.803C93.8314 112.936 93.298 106.063 92.0061 99.3135C89.5261 87.7435 83.3061 78.4635 74.3761 70.9135C69.0394 66.5723 63.3534 62.6791 57.3761 59.2735C50.7461 55.2735 44.0161 51.5335 37.8561 46.8535C30.7861 41.4835 25.2261 35.0035 22.6061 26.3235C21.4461 22.4435 23.4561 19.4935 27.5161 19.5135C50.7061 19.6235 73.9061 19.1935 97.0961 19.7335C107.795 19.8779 118.003 24.2451 125.496 31.8835C135.176 41.4335 139.496 53.1135 138.266 66.6835C137.425 76.4623 133.178 85.6356 126.266 92.6035C120.798 98.2965 113.812 102.302 106.136 104.143C105.136 104.403 104.906 104.843 105.056 105.823C105.662 110.179 105.83 114.584 105.556 118.973C105.556 119.973 105.746 120.083 106.556 119.903C110.023 119.256 113.421 118.285 116.706 117.003C131.556 111.003 142.426 100.713 149.006 86.0035C152.28 78.6778 153.984 70.7475 154.006 62.7235C153.983 57.8362 153.328 52.9724 152.056 48.2535C148.768 34.7432 140.633 22.9108 129.196 15.0035C119.886 8.24433 108.701 4.55335 97.1961 4.44346C82.3161 4.29346 67.3961 4.40346 52.4861 4.40346Z" fill="#2B2B2B" fill-opacity="0.5"/>
</svg>
