<svg width="159" height="126" viewBox="0 0 159 126" fill="none" xmlns="http://www.w3.org/2000/svg">
<path d="M158.008 62.084C158.008 62.4854 158.008 62.8868 158.008 63.2882C158.008 63.525 157.991 63.7616 157.949 63.9948C157.902 64.2611 157.852 64.5369 157.852 64.7879C157.748 70.2475 156.759 75.6032 155.145 80.8028C154.104 84.0786 152.802 87.2504 151.345 90.3182C149.366 94.53 146.711 98.3777 143.744 101.965C139.996 106.541 135.675 110.545 130.833 113.873C125.419 117.616 119.536 120.476 113.185 122.296C109.593 123.336 106.001 124.116 102.305 124.48C101.42 124.584 101.212 124.376 101.212 123.44C101.107 117.772 101.68 112.053 100.847 106.437C100.639 104.825 100.483 103.265 100.275 101.653C100.222 101.03 100.379 100.77 101.003 100.666C104.179 100.354 107.251 99.4696 110.218 98.2737C114.122 96.7138 117.662 94.53 120.786 91.7741C126.096 87.0944 129.948 81.4788 132.187 74.7712C133.332 71.4434 134.009 68.0117 134.217 64.4759C134.582 59.7962 133.801 55.2205 132.395 50.6968C130.625 44.8731 127.554 39.7775 123.337 35.4617C116.309 28.2862 107.771 24.2305 97.7757 23.6585C91.6327 23.3465 85.4897 23.4505 79.3467 23.4505C72.4749 23.3985 65.6031 23.4505 58.7312 23.4505C48.2673 23.4505 37.7513 23.4505 27.2874 23.4505C26.1942 23.4505 25.9859 23.7105 26.3503 24.7504C26.6627 25.6344 26.923 26.5183 27.2353 27.3503C29.6301 33.4339 33.6907 38.1656 38.5843 42.1173C44.0505 46.537 50.0894 50.1248 56.1283 53.6606C62.1151 57.1443 67.9978 60.7841 73.5161 64.8919C81.6373 70.9235 88.1447 78.411 92.4136 87.6664C94.1316 91.4102 95.4851 95.3099 96.1098 99.4176C96.5784 102.433 97.2031 105.501 97.3592 108.569C97.6195 113.769 97.5154 119.02 97.5675 124.22C97.5675 124.896 97.3072 125.052 96.6825 125C95.2248 124.948 93.7151 124.948 92.2574 124.948C63.4686 124.948 34.6278 124.948 5.83897 124.948C5.10212 124.948 4.57625 124.229 4.66656 123.498C4.86301 121.907 5.01544 120.38 5.4225 118.916C6.35956 115.381 8.02546 112.157 10.5243 109.401C15.2096 104.253 20.9882 101.446 27.9642 101.394C40.5105 101.29 53.1088 101.342 65.6551 101.342C67.5813 101.342 69.5596 101.342 71.4858 101.342C72.2146 101.342 72.579 101.186 72.1625 100.354C71.7981 99.6776 71.6419 98.8457 71.3296 98.1697C68.8307 92.4501 64.8222 87.9784 59.9286 84.2346C54.0459 79.6589 47.5905 76.0191 41.1872 72.2234C34.0031 67.9597 26.975 63.5919 20.6238 58.0803C10.8367 49.5528 4.22513 39.2055 1.57011 26.4663C0.6851 22.1506 0.164507 17.7829 0.112448 13.3631C-0.0437298 9.09942 0.00832949 4.83569 0.00832949 0.571963C0.00832949 0.23332 0.35619 0 0.694834 0C0.833167 0 0.967371 0 1.10157 0C12.8149 0 24.5283 0 36.2416 0C55.3994 0 74.5573 0.0519967 93.7672 0C98.5045 0 103.138 0.31198 107.771 1.24792C113.237 2.33985 118.443 4.15973 123.389 6.60358C129.792 9.82737 135.415 13.9871 140.412 19.1348C145.566 24.4384 149.679 30.4701 152.542 37.2296C153.896 40.3494 154.989 43.6252 155.874 46.953C156.707 50.1248 157.123 53.3486 157.592 56.6244C157.852 58.4443 157.904 60.2641 158.008 62.084Z"/>
</svg>
